<svg width="179" height="126" viewBox="0 0 179 126" fill="none"
    xmlns="http://www.w3.org/2000/svg">
    <path d="M120 -0.000144137L122 -0.000166333L123.437 14.3622C125.045 30.4488 118.777 46.3206 106.61 56.9665L46.0002 110L44.0002 110L104.724 56.4872C116.823 45.825 123.036 29.9818 121.412 13.9373L120 -0.000144137Z" fill="url(#paint0_linear_70_1697)" fill-opacity="0.6"/>
    <path d="M114 -0.000144137L116 -0.000166333L117.437 14.3622C119.045 30.4488 112.777 46.3206 100.61 56.9665L40.0002 110L38.0002 110L98.7239 56.4872C110.823 45.825 117.036 29.9818 115.412 13.9373L114 -0.000144137Z" fill="url(#paint1_linear_70_1697)" fill-opacity="0.6"/>
    <path d="M108 -0.000144137L110 -0.000166333L111.437 14.3622C113.045 30.4488 106.777 46.3206 94.6099 56.9665L34.0002 110L32.0002 110L92.7239 56.4872C104.823 45.825 111.036 29.9818 109.412 13.9373L108 -0.000144137Z" fill="url(#paint2_linear_70_1697)" fill-opacity="0.6"/>
    <path d="M102 -0.000144137L104 -0.000166333L105.437 14.3622C107.045 30.4488 100.777 46.3206 88.6099 56.9665L28.0002 110L26.0002 110L86.7239 56.4872C98.8228 45.825 105.036 29.9818 103.412 13.9373L102 -0.000144137Z" fill="url(#paint3_linear_70_1697)" fill-opacity="0.6"/>
    <path d="M96.0003 -0.000144137L98.0003 -0.000166333L99.4366 14.3622C101.045 30.4488 94.7768 46.3206 82.6099 56.9665L22.0002 110L20.0002 110L80.7239 56.4872C92.8228 45.825 99.0364 29.9818 97.4117 13.9373L96.0003 -0.000144137Z" fill="url(#paint4_linear_70_1697)" fill-opacity="0.6"/>
    <path d="M83.9988 0.00198151L86.0003 -0.000166333L87.4245 14.4037C89.0159 30.4991 82.7234 46.3702 70.5352 57.0023L11.5002 108.5L9.39381 107.653L68.3738 56.5337C80.6551 45.8892 86.9966 29.9398 85.3773 13.7685L83.9988 0.00198151Z" fill="url(#paint5_linear_70_1697)" fill-opacity="0.6"/>
    <path d="M89.9988 0.00198151L92.0003 -0.000166265L93.4481 14.6426C95.0264 30.6046 88.8509 46.3547 76.8442 56.9903L17.0001 110L14.5002 109.5L74.6863 56.523C86.7843 45.8741 93.0073 30.0465 91.4014 14.0096L89.9988 0.00198151Z" fill="url(#paint6_linear_70_1697)" fill-opacity="0.6"/>
    <path d="M78.0003 -0.000144137L80.0003 -0.000166333L81.4483 14.479C83.0505 30.5004 76.8392 46.3131 64.7612 56.9608L8.00024 107L6.00024 106L62.58 56.4926C74.7634 45.8321 81.0314 29.9327 79.4004 13.8262L78.0003 -0.000144137Z" fill="url(#paint7_linear_70_1697)" fill-opacity="0.6"/>
    <path d="M72.0003 -0.000144137L74.0003 -0.000166333L75.4532 14.528C77.0527 30.522 70.8653 46.3098 58.8245 56.9581L4.50024 105L3.00024 104L56.7767 56.485C68.8446 45.8223 75.0382 29.9998 73.4158 13.9781L72.0003 -0.000144137Z" fill="url(#paint8_linear_70_1697)" fill-opacity="0.6"/>
    <path d="M127 -0.000144137L129 -0.000166333L130.437 14.3622C132.045 30.4488 125.777 46.3206 113.61 56.9665L53.0002 110L51.0002 110L111.724 56.4872C123.823 45.825 130.036 29.9818 128.412 13.9373L127 -0.000144137Z" fill="url(#paint9_linear_70_1697)" fill-opacity="0.6"/>
    <path d="M134 -0.000144137L136 -0.000166333L137.437 14.3622C139.045 30.4488 132.777 46.3206 120.61 56.9665L60.0002 110L58.0002 110L118.724 56.4872C130.823 45.825 137.036 29.9818 135.412 13.9373L134 -0.000144137Z" fill="url(#paint10_linear_70_1697)" fill-opacity="0.6"/>
    <path d="M141 -0.000144137L143 -0.000166333L144.437 14.3622C146.045 30.4488 139.777 46.3206 127.61 56.9665L67.0002 110L65.0002 110L125.724 56.4872C137.823 45.825 144.036 29.9818 142.412 13.9373L141 -0.000144137Z" fill="url(#paint11_linear_70_1697)" fill-opacity="0.6"/>
    <path d="M148 -0.000144137L150 -0.000166333L151.437 14.3622C153.045 30.4488 146.777 46.3206 134.61 56.9665L74.0002 110L72.0002 110L132.724 56.4872C144.823 45.825 151.036 29.9818 149.412 13.9373L148 -0.000144137Z" fill="url(#paint12_linear_70_1697)" fill-opacity="0.6"/>
    <path d="M155 -0.000144137L157 -0.000166333L158.437 14.3622C160.045 30.4488 153.777 46.3206 141.61 56.9665L81.0002 110L79.0002 110L139.724 56.4872C151.823 45.825 158.036 29.9818 156.412 13.9373L155 -0.000144137Z" fill="url(#paint13_linear_70_1697)" fill-opacity="0.6"/>
    <defs>
        <linearGradient  x1="132.048" y1="6.98411" x2="55.084" y2="117.704" gradientUnits="userSpaceOnUse">
            <stop stop-color="#8AE0E6"/>
            <stop offset="1" stop-color="#8AE0E6" stop-opacity="0.57"/>
        </linearGradient>
        <linearGradient  x1="126.048" y1="6.98411" x2="49.084" y2="117.704" gradientUnits="userSpaceOnUse">
            <stop stop-color="#8AE0E6"/>
            <stop offset="1" stop-color="#8AE0E6" stop-opacity="0.57"/>
        </linearGradient>
        <linearGradient  x1="120.048" y1="6.98411" x2="43.084" y2="117.704" gradientUnits="userSpaceOnUse">
            <stop stop-color="#8AE0E6"/>
            <stop offset="1" stop-color="#8AE0E6" stop-opacity="0.57"/>
        </linearGradient>
        <linearGradient  x1="114.048" y1="6.98411" x2="37.084" y2="117.704" gradientUnits="userSpaceOnUse">
            <stop stop-color="#8AE0E6"/>
            <stop offset="1" stop-color="#8AE0E6" stop-opacity="0.57"/>
        </linearGradient>
        <linearGradient  x1="108.048" y1="6.98411" x2="31.084" y2="117.704" gradientUnits="userSpaceOnUse">
            <stop stop-color="#8AE0E6"/>
            <stop offset="1" stop-color="#8AE0E6" stop-opacity="0.57"/>
        </linearGradient>
        <linearGradient  x1="96.0479" y1="6.98411" x2="20.6379" y2="115.469" gradientUnits="userSpaceOnUse">
            <stop stop-color="#8AE0E6"/>
            <stop offset="1" stop-color="#8AE0E6" stop-opacity="0.57"/>
        </linearGradient>
        <linearGradient  x1="102.048" y1="6.98411" x2="25.4812" y2="117.133" gradientUnits="userSpaceOnUse">
            <stop stop-color="#8AE0E6"/>
            <stop offset="1" stop-color="#8AE0E6" stop-opacity="0.57"/>
        </linearGradient>
        <linearGradient  x1="90.0479" y1="6.98411" x2="16.2617" y2="113.133" gradientUnits="userSpaceOnUse">
            <stop stop-color="#8AE0E6"/>
            <stop offset="1" stop-color="#8AE0E6" stop-opacity="0.57"/>
        </linearGradient>
        <linearGradient  x1="84.0479" y1="6.98411" x2="12.1764" y2="110.378" gradientUnits="userSpaceOnUse">
            <stop stop-color="#8AE0E6"/>
            <stop offset="1" stop-color="#8AE0E6" stop-opacity="0.57"/>
        </linearGradient>
        <linearGradient  x1="139.048" y1="6.98411" x2="62.084" y2="117.704" gradientUnits="userSpaceOnUse">
            <stop stop-color="#8AE0E6"/>
            <stop offset="1" stop-color="#8AE0E6" stop-opacity="0.57"/>
        </linearGradient>
        <linearGradient  x1="146.048" y1="6.98411" x2="69.084" y2="117.704" gradientUnits="userSpaceOnUse">
            <stop stop-color="#8AE0E6"/>
            <stop offset="1" stop-color="#8AE0E6" stop-opacity="0.57"/>
        </linearGradient>
        <linearGradient x1="153.048" y1="6.98411" x2="76.084" y2="117.704" gradientUnits="userSpaceOnUse">
            <stop stop-color="#8AE0E6"/>
            <stop offset="1" stop-color="#8AE0E6" stop-opacity="0.57"/>
        </linearGradient>
        <linearGradient  x1="160.048" y1="6.98411" x2="83.084" y2="117.704" gradientUnits="userSpaceOnUse">
            <stop stop-color="#8AE0E6"/>
            <stop offset="1" stop-color="#8AE0E6" stop-opacity="0.57"/>
        </linearGradient>
        <linearGradient  x1="167.048" y1="6.98411" x2="90.084" y2="117.704" gradientUnits="userSpaceOnUse">
            <stop stop-color="#8AE0E6"/>
            <stop offset="1" stop-color="#8AE0E6" stop-opacity="0.57"/>
        </linearGradient>
    </defs>
</svg>
