<svg width="102" height="86" viewBox="0 0 102 86" fill="none" xmlns="http://www.w3.org/2000/svg">
<path d="M0.755569 0.812377C13.9282 0.847605 27.4983 3.53367 39.6564 8.02268C51.8144 12.5117 62.8548 19.0732 72.1473 27.3326C81.4398 35.592 88.8023 45.3874 93.8145 56.1598C98.8267 66.9321 102.031 74.3544 102 85.9997L89.0613 85.9958L77.2482 85.9923C77.2717 77.213 74.7629 72.5718 70.9842 64.4507C67.2056 56.3296 61.6551 48.9449 54.6496 42.7182C47.6442 36.4916 39.3209 31.5449 30.1551 28.1607C20.9893 24.7765 10.6936 22.8313 0.762926 22.8047L0.759347 12.1058L0.755569 0.812377Z" fill="#53D8E1"/>
</svg>
