<svg width="97" height="83" viewBox="0 0 97 83" fill="none"
    xmlns="http://www.w3.org/2000/svg">
    <path d="M0.216773 0.91735C12.7822 0.950954 25.7266 3.51319 37.3242 7.79525C48.9217 12.0773 59.4532 18.3363 68.3172 26.2149C77.1813 34.0935 84.2044 43.4374 88.9855 53.7132C93.7666 63.9889 96.8233 71.0689 96.7936 82.1774L84.4515 82.1736L73.183 82.1703C73.2054 73.7958 70.8122 69.3686 67.2078 61.6219C63.6034 53.8751 58.3087 46.8309 51.6262 40.8913C44.9437 34.9517 37.0042 30.2331 28.2609 27.0049C19.5177 23.7767 9.69669 21.9211 0.22379 21.8958L0.220376 11.6901L0.216773 0.91735Z" fill="#53D8E1"/>
</svg>
