<svg width="85" height="82" viewBox="0 0 85 82" fill="none" xmlns="http://www.w3.org/2000/svg">
<path d="M85 -0.000241642C73.9803 0.0292284 62.2992 2.95453 52.1296 7.17614C41.96 11.3977 32.7259 17.5703 24.9545 25.3413C17.1832 33.1123 11.0268 42.3297 6.83683 52.4671C2.64688 62.6045 -0.0293039 71.0394 9.56494e-06 81.9998L10.9999 81.9998L21.0001 81.9999C20.978 73.7369 22.7791 67.9193 25.9379 60.2768C29.0967 52.6343 33.7379 45.6855 39.5966 39.827C45.4553 33.9685 52.4168 29.3151 60.0836 26.1325C67.7503 22.9499 76.6924 21.022 85 20.9998L85 11.169L85 -0.000241642Z" fill="#53D8E1"/>
</svg>
