<svg width="8" height="13" viewBox="0 0 8 13" fill="none"
    xmlns="http://www.w3.org/2000/svg">
    <path d="M7.03783 0.533276C7.21358 0.709083 7.31231 0.947497 7.31231 1.19609C7.31231 1.44468 7.21358 1.68309 7.03783 1.8589L2.3972 6.49952L7.03783 11.1401C7.2086 11.317 7.30309 11.5538 7.30096 11.7996C7.29882 12.0454 7.20023 12.2805 7.02641 12.4543C6.85259 12.6282 6.61745 12.7268 6.37164 12.7289C6.12583 12.731 5.88902 12.6365 5.7122 12.4658L0.408765 7.16233C0.23301 6.98653 0.134277 6.74811 0.134277 6.49952C0.134277 6.25093 0.23301 6.01252 0.408765 5.83671L5.7122 0.533276C5.88801 0.357522 6.12642 0.258789 6.37501 0.258789C6.62361 0.258789 6.86202 0.357522 7.03783 0.533276Z" fill="#ACACAC"/>
</svg>
