<svg width="23" height="26" viewBox="0 0 23 26" fill="none"
    xmlns="http://www.w3.org/2000/svg">
    <path d="M14.7857 20.3125C14.7857 20.7594 15.1554 21.125 15.6071 21.125C16.0589 21.125 16.4286 20.7594 16.4286 20.3125V9.75C16.4286 9.30313 16.0589 8.9375 15.6071 8.9375C15.1554 8.9375 14.7857 9.30313 14.7857 9.75V20.3125ZM10.6786 20.3125C10.6786 20.7594 11.0482 21.125 11.5 21.125C11.9518 21.125 12.3214 20.7594 12.3214 20.3125V9.75C12.3214 9.30313 11.9518 8.9375 11.5 8.9375C11.0482 8.9375 10.6786 9.30313 10.6786 9.75V20.3125ZM6.57143 20.3125C6.57143 20.7594 6.94107 21.125 7.39286 21.125C7.84464 21.125 8.21428 20.7594 8.21428 20.3125V9.75C8.21428 9.30313 7.84464 8.9375 7.39286 8.9375C6.94107 8.9375 6.57143 9.30313 6.57143 9.75V20.3125ZM6.69978 1.26648L4.81562 4.0625H1.23214C0.54933 4.0625 0 4.6084 0 5.28125C0 5.95664 0.54933 6.5 1.23214 6.5H1.64286V21.9375C1.64286 24.182 3.4808 26 5.75 26H17.25C19.5182 26 21.3571 24.182 21.3571 21.9375V6.5H21.7679C22.4481 6.5 23 5.95664 23 5.28125C23 4.6084 22.4481 4.0625 21.7679 4.0625H18.1833L16.3002 1.26648C15.7663 0.47516 14.8679 0 13.9078 0H9.09219C8.13214 0 7.2337 0.475211 6.69978 1.26648ZM15.2221 4.0625H7.7779L8.75335 2.61828C8.83036 2.50555 8.9587 2.4375 9.09219 2.4375H13.9078C14.0413 2.4375 14.2158 2.50555 14.2467 2.61828L15.2221 4.0625ZM18.8929 21.9375C18.8929 22.8363 18.1572 23.5625 17.25 23.5625H5.75C4.84129 23.5625 4.10714 22.8363 4.10714 21.9375V6.5H18.8929V21.9375Z" fill="white"/>
</svg>
