<svg width="323" height="329" viewBox="0 0 323 329" fill="none"
    xmlns="http://www.w3.org/2000/svg">
    <path d="M0 73.8901L277.05 0L326 73.8901V301H0V73.8901Z" fill="#53D1D9"/>
    <path d="M0 101.89L274.5 28L323 101.89V329H0V101.89Z" fill="#00BAC6"/>
    <path fill-rule="evenodd" clip-rule="evenodd" d="M93.2716 75.7168C118.703 86.2668 136.541 110.909 136.541 139.626C136.541 177.949 104.772 209.016 65.5822 209.016C36.007 209.016 10.6578 191.323 0 166.169L0 226.715C14.2034 236.938 30.6925 243.732 48.1137 246.541C65.5349 249.349 83.3914 248.092 100.217 242.872C117.043 237.653 132.358 228.619 144.906 216.514C157.453 204.408 166.875 189.576 172.398 173.234C177.921 156.893 179.387 139.508 176.676 122.507C173.966 105.506 163.568 81.4257 140.716 64.5879L93.2716 75.7168Z" fill="#8AE0E6" fill-opacity="0.6"/>
</svg>
