<svg width="20" height="12" viewBox="0 0 20 12" fill="none"
    xmlns="http://www.w3.org/2000/svg">
    <path d="M1.24926 1.27811C1.50711 1.02034 1.85678 0.875533 2.22139 0.875533C2.58599 0.875533 2.93566 1.02034 3.19351 1.27811L9.99976 8.08436L16.806 1.27811C17.0653 1.02765 17.4127 0.889054 17.7732 0.892187C18.1337 0.89532 18.4786 1.03993 18.7335 1.29486C18.9884 1.5498 19.133 1.89467 19.1362 2.25519C19.1393 2.61571 19.0007 2.96304 18.7502 3.22236L10.9719 11.0007C10.714 11.2585 10.3644 11.4033 9.99976 11.4033C9.63515 11.4033 9.28548 11.2585 9.02763 11.0007L1.24926 3.22236C0.991488 2.96451 0.84668 2.61484 0.84668 2.25024C0.84668 1.88564 0.991488 1.53596 1.24926 1.27811Z" fill="white"/>
</svg>
