<svg width="17" height="17" viewBox="0 0 17 17" fill="none"
    xmlns="http://www.w3.org/2000/svg">
    <path d="M15.9527 16.7498C16.0521 16.7995 16.1634 16.8203 16.274 16.8099C16.3847 16.7994 16.4902 16.7581 16.5785 16.6907C16.6669 16.6233 16.7345 16.5324 16.7737 16.4285C16.813 16.3245 16.8223 16.2116 16.8005 16.1026L15.1345 10.3432C15.1034 10.2359 15.0427 10.1395 14.9593 10.0651C14.8759 9.99078 14.7732 9.94146 14.663 9.92285L7.90616 8.79116C7.58791 8.72822 7.58791 8.27222 7.90616 8.20928L14.663 7.0776C14.7732 7.05898 14.8759 7.00966 14.9593 6.9353C15.0427 6.86094 15.1034 6.76455 15.1345 6.65722L16.8005 0.897845C16.8223 0.78886 16.813 0.675962 16.7737 0.571991C16.7345 0.468021 16.6669 0.377153 16.5785 0.309723C16.4902 0.242294 16.3847 0.201012 16.274 0.190569C16.1634 0.180128 16.0521 0.200947 15.9527 0.250658L0.515165 7.96941C0.416674 8.01877 0.333857 8.09457 0.275982 8.18831C0.218107 8.28205 0.187454 8.39005 0.187454 8.50022C0.187454 8.61039 0.218107 8.71839 0.275982 8.81213C0.333857 8.90588 0.416674 8.98167 0.515165 9.03103L15.9527 16.7498Z" fill="#00BAC6"/>
</svg>
