<svg width="89" height="92" viewBox="0 0 89 92" fill="none"
    xmlns="http://www.w3.org/2000/svg">
    <path fill-rule="evenodd" clip-rule="evenodd" d="M89 47.7487C83.6425 61.0541 70.8378 70.4207 55.8937 70.4207C36.1286 70.4207 20.1057 54.0357 20.1057 33.8237C20.1057 18.5705 29.231 5.49683 42.2034 0H10.9775C5.70539 7.32536 2.20124 15.8296 0.752698 24.8145C-0.695845 33.7995 -0.047481 43.0089 2.64456 51.6868C5.33661 60.3647 9.99557 68.2635 16.239 74.7349C22.4823 81.2063 30.1321 86.0656 38.5603 88.914C46.9885 91.7624 55.9547 92.5186 64.7228 91.1206C73.491 89.7225 81.8111 86.21 89 80.8716V47.7487Z" fill="#8AE0E6" fill-opacity="0.6"/>
</svg>
